<?xml version="1.0" encoding="iso-8859-1"?>
<!-- Generator: Adobe Illustrator 19.0.0, SVG Export Plug-In . SVG Version: 6.00 Build 0)  -->
<svg fill="#E8B93D" version="1.1" id="Layer_1" xmlns="http://www.w3.org/2000/svg" xmlns:xlink="http://www.w3.org/1999/xlink" x="0px" y="0px"
	 viewBox="0 0 464.1 464.1" style="enable-background:new 0 0 464.1 464.1;" xml:space="preserve">
<g>
	<g>
		<path d="M453.55,36.4c0-0.1-0.1-0.2-0.1-0.3c-0.1-0.3-0.2-0.5-0.3-0.8c-0.3-0.7-0.7-1.4-1.2-2.1l-14.8-21.7
			c-4.7-6.8-14.8-11.5-23.1-11.5h-212c-8.1,0-18.6,4.1-23.6,10.4l-17.7,22.1c-0.1,0.2-0.2,0.3-0.4,0.5c-0.1,0.1-0.2,0.3-0.3,0.4
			c-0.1,0.2-0.3,0.4-0.4,0.6c-0.1,0.1-0.2,0.3-0.2,0.4c-0.1,0.2-0.2,0.4-0.3,0.6c-0.1,0.1-0.1,0.3-0.2,0.4c-0.1,0.2-0.2,0.5-0.2,0.7
			c0,0.1-0.1,0.3-0.1,0.4c-0.1,0.2-0.1,0.5-0.2,0.7c0,0.1-0.1,0.3-0.1,0.4c0,0.3-0.1,0.5-0.1,0.8c0,0.1,0,0.3-0.1,0.4
			c0,0.3,0,0.6,0,0.8c0,0.1,0,0.2,0,0.3V40v120H50.05c-8.3,0-18.4,4.7-23.1,11.5l-14.8,21.7c-0.7,1-1.2,2.1-1.6,3.3
			c0,0.1,0,0.1,0,0.2c-0.1,0.3-0.2,0.6-0.2,1c-0.1,0.4-0.1,0.8-0.2,1.2c0,0.4-0.1,0.8-0.1,1.2v184c0,6.6,5.4,12,12,12h36v56
			c0,4.9,2.9,9.2,7.4,11.1c1.5,0.6,3,0.9,4.6,0.9c3.1,0,6.2-1.2,8.5-3.5l64.5-64.6h151c6.6,0,12-5.4,12-12V236h15l64.5,64.5
			c2.3,2.3,5.4,3.5,8.5,3.5c1.5,0,3.1-0.3,4.6-0.9c4.5-1.9,7.4-6.2,7.4-11.1v-56h36c6.6,0,12-5.4,12-12V40
			C454.05,38.8,453.85,37.6,453.55,36.4z M197.15,25.6c0.6-0.9,2.7-1.9,3.6-1.9h213.8c0.7,0.1,2.3,0.9,2.7,1.4l7.5,11h-236.1
			L197.15,25.6z M46.75,185.3c0.5-0.7,2-1.5,2.7-1.6h213.8c1,0.1,3.1,1.1,3.7,1.8l8.5,10.6H39.35L46.75,185.3z M282.05,372h-144
			c-3.2,0-6.2,1.3-8.5,3.5L82.05,423v-39c0-6.6-5.4-12-12-12h-36V212h248V372z M430.05,212h-36c-6.6,0-12,5.4-12,12v39l-47.5-47.5
			c-2.2-2.3-5.3-3.5-8.5-3.5h-20v-11.8V200c0-0.1,0-0.2,0-0.3c0-0.3,0-0.5,0-0.8c0-0.1,0-0.3-0.1-0.4c0-0.2-0.1-0.5-0.1-0.7
			s-0.1-0.3-0.1-0.5c-0.1-0.2-0.1-0.4-0.2-0.7c-0.1-0.2-0.1-0.3-0.2-0.5c-0.1-0.2-0.1-0.4-0.2-0.6c-0.1-0.2-0.1-0.3-0.2-0.5
			c-0.1-0.2-0.2-0.4-0.3-0.6c-0.1-0.2-0.2-0.3-0.3-0.5c-0.1-0.2-0.2-0.3-0.3-0.5c-0.1-0.2-0.3-0.4-0.4-0.5c-0.1-0.1-0.2-0.3-0.3-0.4
			l-17.7-22.1c-5.1-6.3-15.5-10.4-23.6-10.4h-80V52h248V212z"/>
	</g>
</g>
<g>
	<g>
		<path d="M250.05,104c-13.2,0-24,10.8-24,24s10.8,24,24,24s24-10.8,24-24S263.25,104,250.05,104z M250.05,136c-4.4,0-8-3.6-8-8
			c0-4.4,3.6-8,8-8c4.4,0,8,3.6,8,8C258.05,132.4,254.45,136,250.05,136z"/>
	</g>
</g>
<g>
	<g>
		<path d="M310.05,104c-13.2,0-24,10.8-24,24s10.8,24,24,24s24-10.8,24-24S323.25,104,310.05,104z M310.05,136c-4.4,0-8-3.6-8-8
			c0-4.4,3.6-8,8-8c4.4,0,8,3.6,8,8C318.05,132.4,314.45,136,310.05,136z"/>
	</g>
</g>
<g>
	<g>
		<path d="M370.05,104c-13.2,0-24,10.8-24,24s10.8,24,24,24s24-10.8,24-24S383.25,104,370.05,104z M370.05,136c-4.4,0-8-3.6-8-8
			c0-4.4,3.6-8,8-8c4.4,0,8,3.6,8,8C378.05,132.4,374.45,136,370.05,136z"/>
	</g>
</g>
<g>
	<g>
		<path d="M201.35,252.7c-3.1-3.1-8.2-3.1-11.3,0l-71.3,71.3c-3.1,3.1-3.1,8.2,0,11.3c1.6,1.6,3.6,2.3,5.7,2.3c2,0,4.1-0.8,5.7-2.3
			l71.3-71.3C204.45,260.9,204.45,255.8,201.35,252.7z"/>
	</g>
</g>
<g>
	<g>
		<path d="M186.05,296c-13.2,0-24,10.8-24,24s10.8,24,24,24s24-10.8,24-24S199.25,296,186.05,296z M186.05,328c-4.4,0-8-3.6-8-8
			c0-4.4,3.6-8,8-8c4.4,0,8,3.6,8,8C194.05,324.4,190.45,328,186.05,328z"/>
	</g>
</g>
<g>
	<g>
		<path d="M130.05,248c-13.2,0-24,10.8-24,24s10.8,24,24,24s24-10.8,24-24S143.25,248,130.05,248z M130.05,280c-4.4,0-8-3.6-8-8
			c0-4.4,3.6-8,8-8c4.4,0,8,3.6,8,8C138.05,276.4,134.45,280,130.05,280z"/>
	</g>
</g>
<g>
</g>
<g>
</g>
<g>
</g>
<g>
</g>
<g>
</g>
<g>
</g>
<g>
</g>
<g>
</g>
<g>
</g>
<g>
</g>
<g>
</g>
<g>
</g>
<g>
</g>
<g>
</g>
<g>
</g>
</svg>
