<?xml version="1.0" encoding="iso-8859-1"?>
<!-- Generator: Adobe Illustrator 19.0.0, SVG Export Plug-In . SVG Version: 6.00 Build 0)  -->
<svg fill="#E8B93D" version="1.1" id="Layer_1" xmlns="http://www.w3.org/2000/svg" xmlns:xlink="http://www.w3.org/1999/xlink" x="0px" y="0px"
	 viewBox="0 0 428.007 428.007" style="enable-background:new 0 0 428.007 428.007;" xml:space="preserve">
<g>
	<g>
		<path d="M416.004,100.007c-6.628,0-12,5.372-12,12v267.996c0,2.168-1.832,4-4,4h-372c-2.168,0-4-1.832-4-4v-264
			c0-6.628-5.372-12-12-12s-12,5.372-12,12v264c0,15.436,12.56,28,28,28h372c15.44,0,28-12.56,28-28V112.007
			C428.004,105.379,422.632,100.007,416.004,100.007z"/>
	</g>
</g>
<g>
	<g>
		<path d="M364.004,304.003h-52c-4.42,0-8,3.584-8,8c0,4.416,3.58,8,8,8h52c4.416,0,8-3.584,8-8
			C372.004,307.587,368.42,304.003,364.004,304.003z"/>
	</g>
</g>
<g>
	<g>
		<path d="M364.004,272.003h-52c-4.42,0-8,3.584-8,8c0,4.416,3.58,8,8,8h52c4.416,0,8-3.584,8-8
			C372.004,275.587,368.42,272.003,364.004,272.003z"/>
	</g>
</g>
<g>
	<g>
		<path d="M280.004,272.003h-32c-4.42,0-8,3.584-8,8c0,4.416,3.58,8,8,8h32c4.416,0,8-3.584,8-8
			C288.004,275.587,284.42,272.003,280.004,272.003z"/>
	</g>
</g>
<g>
	<g>
		<path d="M364.004,336.003h-92c-4.42,0-8,3.584-8,8c0,4.416,3.58,8,8,8h92c4.416,0,8-3.584,8-8
			C372.004,339.587,368.42,336.003,364.004,336.003z"/>
	</g>
</g>
<g>
	<g>
		<path d="M172.004,272.003h-108c-4.42,0-8,3.584-8,8v64c0,4.416,3.58,8,8,8h108c4.416,0,8-3.58,8-8v-64
			C180.004,275.587,176.42,272.003,172.004,272.003z M164.004,336.003h-92v-48h92V336.003z"/>
	</g>
</g>
<g>
	<g>
		<path d="M427.244,107.807l-27.096-72.512c-3.312-8.86-12.58-15.292-22.04-15.292H50.236c-9.524,0-18.776,6.504-22,15.464
			L0.712,111.939c-2.244,6.236,0.992,13.112,7.228,15.356c1.344,0.48,2.716,0.712,4.064,0.712c4.916,0,9.528-3.048,11.288-7.94
			l27.356-76.004c0.028-0.02,0.056-0.044,0.084-0.06h326.916c0.06,0.036,0.128,0.08,0.184,0.128l26.932,72.076
			c2.32,6.208,9.228,9.364,15.44,7.04C426.412,120.927,429.564,114.015,427.244,107.807z"/>
	</g>
</g>
<g>
	<g>
		<rect x="8.004" y="108.003" width="404" height="16"/>
	</g>
</g>
<g>
	<g>
		<path d="M232.004,28.003h-40c-8.836,0-16,7.164-16,16v144c0,13.232,10.768,24,24,24h24c13.232,0,24-10.768,24-24v-144
			C248.004,35.167,240.84,28.003,232.004,28.003z M232.004,188.003c0,4.416-3.584,8-8,8h-24c-4.42,0-8-3.584-8-8v-144h40V188.003z"
			/>
	</g>
</g>
<g>
</g>
<g>
</g>
<g>
</g>
<g>
</g>
<g>
</g>
<g>
</g>
<g>
</g>
<g>
</g>
<g>
</g>
<g>
</g>
<g>
</g>
<g>
</g>
<g>
</g>
<g>
</g>
<g>
</g>
</svg>
